<svg xmlns="http://www.w3.org/2000/svg" width="24.812" height="30" viewBox="0 0 24.812 30">
  <path id="Path_11" data-name="Path 11" d="M129.3,1777.9v-3.542q0-1.126-.654-1.127a1.056,1.056,0,0,0-.744.36v5.053a1.054,1.054,0,0,0,.744.361q.654,0,.654-1.1Zm4.151-2.752h1.488v-.767q0-1.15-.744-1.15t-.744,1.15Zm-12.88-6v1.579h-1.805v9.541H117.1v-9.541H115.34v-1.579Zm4.534,2.842v8.278H123.6v-.9a2.4,2.4,0,0,1-1.714,1.015.887.887,0,0,1-.947-.632,3.838,3.838,0,0,1-.136-1.218v-6.541h1.489v6.09a3.393,3.393,0,0,0,.023.587q.022.337.338.338.451,0,.947-.7v-6.316Zm5.684,2.5v3.293a5.894,5.894,0,0,1-.158,1.647,1.156,1.156,0,0,1-1.195.947,2.04,2.04,0,0,1-1.534-.925v.812h-1.512v-11.12H127.9v3.631a2.006,2.006,0,0,1,1.534-.9,1.156,1.156,0,0,1,1.195.948A6,6,0,0,1,130.791,1774.489Zm5.662,2.91v.2a7.308,7.308,0,0,1-.046.969,2.116,2.116,0,0,1-.338.9,2.036,2.036,0,0,1-1.8.9,2.168,2.168,0,0,1-1.827-.857,3.171,3.171,0,0,1-.474-1.94v-2.91a3.293,3.293,0,0,1,.451-1.94,2.146,2.146,0,0,1,1.805-.857,2.026,2.026,0,0,1,1.759.857,3.232,3.232,0,0,1,.474,1.94v1.714h-3v1.467q0,1.15.767,1.15a.653.653,0,0,0,.676-.586c0-.015,0-.068.011-.158s.012-.215.012-.373v-.484Zm-10.173-18.587v3.519q0,1.15-.722,1.15t-.722-1.15v-3.519q0-1.173.722-1.173T126.28,1758.812ZM138.3,1774.9a28.915,28.915,0,0,0-.428-5.865,3.093,3.093,0,0,0-.97-1.658,3.051,3.051,0,0,0-1.715-.778,92.669,92.669,0,0,0-9.293-.338,92.36,92.36,0,0,0-9.27.338,3.014,3.014,0,0,0-1.726.778,3.12,3.12,0,0,0-.959,1.658,28.278,28.278,0,0,0-.451,5.865,27.687,27.687,0,0,0,.451,5.864,3.172,3.172,0,0,0,.959,1.647,2.957,2.957,0,0,0,1.7.789,92.984,92.984,0,0,0,9.293.339,92.97,92.97,0,0,0,9.293-.339,2.954,2.954,0,0,0,1.7-.789,3.166,3.166,0,0,0,.959-1.647A27.62,27.62,0,0,0,138.3,1774.9Zm-17.03-14.684,2.03-6.677h-1.691l-1.151,4.4-1.195-4.4H117.5l.542,1.556.518,1.557a30.632,30.632,0,0,1,1.038,3.564v4.533h1.669v-4.533Zm6.519,1.827V1759.1a3.34,3.34,0,0,0-.474-1.962,2.1,2.1,0,0,0-1.759-.857,2.025,2.025,0,0,0-1.76.857,3.348,3.348,0,0,0-.473,1.962v2.933A3.347,3.347,0,0,0,123.8,1764a2.027,2.027,0,0,0,1.76.857,2.1,2.1,0,0,0,1.759-.857A3.215,3.215,0,0,0,127.791,1762.038Zm4.083,2.706h1.511V1756.4h-1.511v6.383q-.5.7-.948.7c-.225,0-.346-.12-.361-.361a3.443,3.443,0,0,1-.022-.586V1756.4h-1.511v6.609a4.217,4.217,0,0,0,.135,1.24.949.949,0,0,0,.97.609,2.52,2.52,0,0,0,1.737-1.015v.9Z" transform="translate(-113.49 -1753.534)" fill="#3d58a6"/>
</svg>
